<?xml version="1.0" encoding="utf-8"?>
<!-- Python AFL API Wrapper Logo - https://github.com/jwjhdev/paaw  -->
<svg version="1.1" id="Layer_1" xmlns="http://www.w3.org/2000/svg" xmlns:xlink="http://www.w3.org/1999/xlink" x="0px" y="0px"
	 viewBox="0 0 1845.7 1251.3" style="enable-background:new 0 0 1845.7 1251.3;" xml:space="preserve">
<style type="text/css">
	.st0{fill-rule:evenodd;clip-rule:evenodd;fill:#325D9D;}
	.st1{fill:#C52B39;}
</style>
<g>
	<g id="layer1" transform="translate(-473.36088,-251.72485)">
		<g id="g1894" transform="translate(428.42338,184.2561)">
			<g>
				<path class="st0" d="M850.9,381.4c-19.1,0-34.6,15.5-34.6,34.6c0,19.1,15.5,34.6,34.6,34.6s34.6-15.5,34.6-34.6
					C885.5,396.9,870,381.4,850.9,381.4z"/>
				<path class="st0" d="M678.2,552.1c-0.4,0-2-0.2-4.3-0.2c-10.6,0-38.4,2.4-63.6,25.3c-33.1,30-49.9,83.5-49.9,159
					c0,79.5,17,137.9,49,168.7c24.6,23.6,50,23.4,52.2,23.4l0.7-0.1l0.4,0h53.6v-82.5c-0.1-5.6-0.3-62.3,38.2-102
					c24.1-24.9,57.5-37.5,99.2-37.5l205,0c0.4,0,44.8,0.1,72.7-27.6c15.6-15.5,23.5-37.4,23.5-65.1V424.9l0.2-1
					c0.2-2.1,1.8-22.5-16.5-43.2c-19.6-22.2-65.7-48.7-173.8-48.7c-49.4,0-90.1,5-121.1,15c-22.8,7.3-39.8,17.1-50.7,29
					c-12.9,14.2-12.7,27-12.6,28.9l0.3,1.5l-0.1,0.9l0.2,78.7h206.4v66.2H679L678.2,552.1z M850.9,471.6c-30.7,0-55.6-25-55.6-55.6
					c0-30.7,25-55.6,55.6-55.6s55.6,25,55.6,55.6C906.5,446.7,881.6,471.6,850.9,471.6z"/>
			</g>
			<g>
				<path class="st0" d="M1845,486.8C1716.4,242.4,1373.8,67.5,971.3,67.5C458.7,67.5,44.9,351,44.9,700.6h0
					c0,87.2,25.7,170.3,72.4,245.9c146,219.9,469.6,372.2,845.3,372.2c512.5,0,928.1-283.5,928.1-635.2
					C1890.6,614.9,1874.6,548.8,1845,486.8z M971.2,1288.9c-251.1,0-472.7-91.7-611.2-236.6h57.1c129.9,130,329,213.2,554.1,213.2h0
					c225.1,0,425.9-83.1,555.8-213.2h57.1C1445.7,1195.1,1222.3,1288.9,971.2,1288.9z M743.4,408.3c-0.6-6.9-0.8-30.8,20.5-55.3
					c33.3-38.4,100.9-57.9,200.8-57.9c98.9,0,167.1,21,202.6,62.5c26.2,30.5,25.2,62.1,24.4,70.1v81.8h80.9
					c6.2-0.2,43.5,0.1,78.1,32.6c40.8,38.3,61.5,104.4,61.5,196.4c0,86.9-21.1,149.9-62.8,187.1c-40.6,36.2-86.5,34.6-94.9,33.9
					h-62.7l0.3,106.9c0.6,6.9,0.8,30.8-20.5,55.3c-33.3,38.4-100.9,57.9-200.8,57.9c-98.9,0-167.1-21-202.6-62.5
					c-26.2-30.5-25.2-62.1-24.4-70.1v-81.8h-80.9c-0.4,0-0.9,0-1.5,0c-9.4,0-44.1-2.2-76.5-32.6c-40.8-38.3-61.5-104.4-61.5-196.4
					c0-86.9,21.1-149.9,62.8-187.1c40.6-36.2,86.5-34.6,94.9-33.9h62.7L743.4,408.3z M1724.4,794.4h-53.7
					c6.9-29.9,10.4-61.8,10.4-93.8c0-255.8-213-471.1-505.6-541.5v61.8h-20.8v-66.1c-36.4-8.5-71-12.8-109.1-17.1V270h-19.1V137.8
					c-19-2.1-36.3-2.1-55.4-2.1c-17.3,0-36.4,0-53.7,2.1V270h-20.8V137.8c-36.4,4.3-72.7,8.5-107.4,17.1v66.1h-20.8v-61.8
					c-292.6,70.4-505.6,285.7-505.6,541.5c0,23.6,1.7,47.1,5.2,70.3l-36.4,72.5c-15.6-44.8-22.5-93.8-22.5-142.8
					c0-326.2,341.1-590.5,761.8-590.5c422.5,0,763.6,264.3,763.6,590.5C1734.8,732.5,1731.3,764.5,1724.4,794.4z"/>
				<path class="st0" d="M1181.2,731c-24.1,24.9-57.5,37.5-99.2,37.5l-205,0c-0.4,0-44.8-0.1-72.7,27.6
					c-15.6,15.5-23.5,37.4-23.5,65.1v188.5l-0.2,1c-0.2,2.1-1.8,22.5,16.5,43.2c19.6,22.2,65.7,48.7,173.8,48.7
					c49.4,0,90.1-5,121.1-15c22.8-7.3,39.8-17.1,50.7-29c12.9-14.2,12.7-27,12.6-28.9l-0.3-1.5l0.1-0.9l-0.2-78.7H948.5v-66.2h308
					l0.9,0.1c2.4,0.2,37.1,2.9,67.9-25.1c33.1-30,49.9-83.5,49.9-159c0-79.5-17-137.9-49-168.7c-24.6-23.6-50-23.4-52.2-23.4
					l-0.7,0.1l-0.4,0h-53.6v82.5C1219.5,634.5,1219.7,691.2,1181.2,731z M1084.7,1003c30.7,0,55.6,25,55.6,55.6
					c0,30.7-25,55.6-55.6,55.6c-30.7,0-55.6-25-55.6-55.6C1029,1027.9,1054,1003,1084.7,1003z"/>
			</g>
		</g>
	</g>
	<path class="st1" d="M1013.6,638.7c0.4,0,44.8,0.1,72.7-27.6c15.6-15.5,23.5-37.4,23.5-65.1V357.5l0.2-1
		c0.2-2.1,1.8-22.5-16.5-43.2c-19.6-22.2-65.7-48.7-173.8-48.7c-49.4,0-90.1,5-121.1,15c-22.8,7.3-39.8,17.1-50.7,29
		c-12.9,14.2-12.7,27-12.6,28.9l0.3,1.5l-0.1,0.9l0.2,78.7h206.4v66.2h-308l-0.9-0.1c-0.4,0-2-0.2-4.3-0.2
		c-10.6,0-38.4,2.4-63.6,25.3c-33.1,30-49.9,83.5-49.9,159c0,79.5,17,137.9,49,168.7c24.6,23.6,50,23.4,52.2,23.4l0.7-0.1l0.4,0
		h53.6v-82.5c-0.1-5.6-0.3-62.3,38.2-102c24.1-24.9,57.5-37.5,99.2-37.5L1013.6,638.7z M806,404.2c-30.7,0-55.6-25-55.6-55.6
		c0-30.7,25-55.6,55.6-55.6s55.6,25,55.6,55.6C861.6,379.2,836.7,404.2,806,404.2z"/>
	<path class="st1" d="M1281.3,502.3c-24.6-23.6-50-23.4-52.2-23.4l-0.7,0.1l-0.4,0h-53.6v82.5c0.1,5.6,0.3,62.3-38.2,102
		c-24.1,24.9-57.5,37.5-99.2,37.5l-205,0c-0.4,0-44.8-0.1-72.7,27.6c-15.6,15.5-23.5,37.4-23.5,65.1v188.5l-0.2,1
		c-0.2,2.1-1.8,22.5,16.5,43.2c19.6,22.2,65.7,48.7,173.8,48.7c49.4,0,90.1-5,121.1-15c22.8-7.3,39.8-17.1,50.7-29
		c12.9-14.2,12.7-27,12.6-28.9l-0.3-1.5l0.1-0.9l-0.2-78.7H903.6V855h308l0.9,0.1c2.4,0.2,37.1,2.9,67.9-25.1
		c33.1-30,49.9-83.5,49.9-159C1330.3,591.4,1313.4,533.1,1281.3,502.3z M1039.7,935.5c30.7,0,55.6,25,55.6,55.6
		c0,30.7-25,55.6-55.6,55.6c-30.7,0-55.6-25-55.6-55.6C984.1,960.4,1009.1,935.5,1039.7,935.5z"/>
	<path class="st0" d="M1039.7,956.5c-19.1,0-34.6,15.5-34.6,34.6c0,19.1,15.5,34.6,34.6,34.6c19.1,0,34.6-15.5,34.6-34.6
		C1074.3,972.1,1058.8,956.5,1039.7,956.5z"/>
</g>
</svg>
